<?xml version="1.0" standalone="no"?>
<!DOCTYPE svg PUBLIC "-//W3C//DTD SVG 20010904//EN"
 "http://www.w3.org/TR/2001/REC-SVG-20010904/DTD/svg10.dtd">
<svg version="1.0" xmlns="http://www.w3.org/2000/svg"
 width="16.000000pt" height="16.000000pt" viewBox="0 0 16.000000 16.000000"
 preserveAspectRatio="xMidYMid meet">

<g transform="translate(0.000000,16.000000) scale(0.100000,-0.100000)"
fill="#000000" stroke="none">
<path d="M26 139 c-37 -29 -37 -89 0 -118 34 -27 85 -27 115 0 l24 21 -25 -16
c-31 -20 -79 -20 -108 0 -31 21 -31 87 0 108 29 20 77 20 108 0 l25 -16 -24
21 c-30 27 -81 27 -115 0z"/>
<path d="M42 124 c-14 -10 -22 -26 -22 -44 0 -50 63 -77 106 -45 17 13 16 13
-13 3 -46 -17 -83 1 -83 42 0 41 37 59 83 42 29 -10 30 -10 13 3 -25 19 -56
19 -84 -1z"/>
<path d="M58 109 c-26 -14 -22 -48 6 -60 17 -8 29 -8 42 0 17 10 16 11 -7 5
-34 -7 -58 18 -38 42 8 10 21 13 38 9 20 -4 22 -3 11 5 -19 12 -30 12 -52 -1z"/>
</g>
</svg>
